<?xml version="1.0" standalone="no"?>
<!DOCTYPE svg PUBLIC "-//W3C//DTD SVG 20010904//EN"
 "http://www.w3.org/TR/2001/REC-SVG-20010904/DTD/svg10.dtd">
<svg version="1.0" xmlns="http://www.w3.org/2000/svg"
 width="24.000000pt" height="24.000000pt" viewBox="0 0 24.000000 24.000000"
 preserveAspectRatio="xMidYMid meet">

<g transform="translate(0.000000,24.000000) scale(0.100000,-0.100000)"
fill="#000000" stroke="none">
<path d="M80 130 c0 -47 -4 -80 -10 -80 -6 0 -10 27 -10 60 0 47 -3 60 -15 60
-12 0 -15 -14 -15 -70 l0 -70 90 0 90 0 0 60 c0 47 -3 60 -15 60 -11 0 -15
-12 -15 -50 0 -27 -4 -50 -10 -50 -5 0 -10 14 -10 30 0 20 -5 30 -15 30 -10 0
-15 -10 -15 -30 0 -16 -4 -30 -10 -30 -6 0 -10 33 -10 80 0 64 -3 80 -15 80
-12 0 -15 -16 -15 -80z"/>
</g>
</svg>
